<?xml version="1.0" standalone="no"?>
<!DOCTYPE svg PUBLIC "-//W3C//DTD SVG 20010904//EN"
 "http://www.w3.org/TR/2001/REC-SVG-20010904/DTD/svg10.dtd">
<svg version="1.0" xmlns="http://www.w3.org/2000/svg"
 width="819.000000pt" height="819.000000pt" viewBox="0 0 819.000000 819.000000"
 preserveAspectRatio="xMidYMid meet">

<g transform="translate(0.000000,819.000000) scale(0.100000,-0.100000)"
fill="#000000" stroke="none">
<path d="M3755 7520 c-806 -104 -1446 -382 -1992 -867 -284 -252 -543 -567
-706 -858 -77 -137 -145 -265 -141 -265 2 0 -8 -21 -21 -46 -14 -26 -25 -56
-25 -66 0 -11 -9 -31 -20 -45 -11 -14 -20 -31 -20 -37 0 -6 5 -4 10 4 6 9 10
10 10 3 0 -6 -7 -18 -15 -27 -8 -8 -15 -21 -15 -29 0 -7 -3 -17 -7 -21 -11
-11 -33 -128 -26 -139 4 -6 1 -7 -7 -2 -10 6 -12 4 -7 -9 4 -10 2 -27 -5 -39
-6 -12 -13 -32 -14 -44 -4 -33 -43 -176 -54 -195 -6 -10 -10 -27 -10 -38 0
-11 -5 -20 -11 -20 -5 0 -8 -4 -5 -9 3 -5 -1 -22 -10 -39 -40 -81 -79 -488
-70 -742 15 -470 105 -833 307 -1250 122 -252 211 -396 372 -609 483 -637
1117 -1068 1890 -1285 975 -275 2064 -104 2907 457 199 132 305 220 500 416
372 373 595 712 784 1188 144 365 214 721 223 1143 6 299 -4 418 -66 726 -98
485 -291 903 -629 1359 -262 355 -667 707 -1077 938 -389 219 -832 369 -1285
434 -124 17 -658 26 -765 13z m705 -255 c363 -47 654 -133 975 -289 249 -121
397 -214 620 -391 293 -232 584 -584 789 -952 109 -194 205 -447 245 -638 l16
-80 75 -39 c92 -47 210 -116 210 -123 0 -3 -9 -3 -20 0 -11 3 -18 1 -14 -4 3
-5 0 -9 -6 -9 -20 0 -170 73 -170 82 0 5 -4 7 -9 4 -5 -3 -33 7 -63 23 -30 16
-74 35 -99 41 -37 10 -122 43 -204 80 -39 18 -271 102 -360 131 -49 16 -99 34
-110 39 -11 5 -73 23 -137 40 -115 30 -117 30 -150 13 -43 -24 -41 -58 4 -67
17 -3 29 -8 26 -11 -3 -3 -72 10 -154 30 -238 56 -216 45 -257 128 -69 139
-243 339 -416 478 -362 293 -866 449 -1317 409 -455 -40 -817 -200 -1151 -510
-54 -50 -206 -224 -246 -280 -9 -13 -20 -19 -27 -15 -9 5 -10 1 -5 -15 5 -15
4 -20 -4 -16 -17 11 -81 -5 -81 -20 0 -8 -9 -14 -20 -14 -11 0 -20 5 -20 10 0
6 -9 10 -19 10 -11 0 -21 5 -23 12 -3 8 -15 9 -46 1 -37 -10 -42 -9 -42 6 0 9
7 29 15 45 8 15 15 32 15 36 0 14 -52 0 -97 -25 -39 -21 -42 -22 -33 -5 7 13
41 29 95 46 l84 26 57 77 c113 150 313 335 539 496 49 35 204 119 300 163 272
123 514 174 825 176 285 1 407 -14 630 -80 47 -14 92 -26 100 -27 8 -1 17 -5
20 -8 3 -3 24 -13 47 -22 32 -13 49 -14 69 -7 23 9 25 8 15 -3 -9 -12 -7 -13
14 -9 25 4 36 -13 13 -20 -7 -3 -6 -7 5 -11 12 -4 17 -1 17 11 0 10 3 13 8 7
4 -5 35 -23 70 -39 39 -19 61 -35 60 -44 -3 -17 58 -55 73 -46 5 3 8 0 7 -8
-2 -7 5 -12 15 -11 10 0 16 -1 13 -4 -6 -6 34 -40 53 -45 7 -2 29 -18 49 -35
36 -34 59 -43 46 -20 -5 9 -3 9 7 -1 8 -7 14 -18 14 -25 0 -7 8 -11 18 -11 9
1 14 -2 12 -7 -3 -4 7 -16 22 -26 15 -10 32 -23 36 -30 5 -8 13 -11 18 -7 5 3
8 1 7 -4 -2 -5 15 -27 37 -48 21 -22 35 -32 31 -24 -6 9 -6 12 0 7 5 -5 9 -13
9 -17 0 -5 16 -24 35 -42 48 -45 103 -110 167 -196 30 -40 58 -70 63 -67 4 3
10 2 12 -2 1 -5 35 -18 75 -31 52 -16 84 -34 113 -62 34 -32 53 -41 118 -55
42 -9 86 -19 97 -22 18 -4 18 -3 -3 12 -12 9 -44 49 -70 88 -25 40 -63 90 -83
112 -20 22 -54 63 -74 90 -75 99 -131 162 -274 305 -139 139 -297 265 -451
360 -92 56 -271 147 -345 174 -38 15 -79 31 -90 36 -22 11 -134 47 -240 78
-245 71 -631 91 -900 47 -55 -9 -113 -18 -130 -21 -81 -12 -386 -101 -460
-134 -27 -12 -63 -28 -80 -35 -124 -52 -375 -189 -436 -236 -14 -11 -32 -21
-40 -23 -27 -5 -68 -29 -63 -37 6 -10 -48 -39 -71 -39 -9 0 -18 -7 -21 -15 -4
-8 -10 -13 -15 -10 -4 3 -13 -3 -18 -14 -6 -11 -21 -23 -33 -27 -23 -7 -35
-15 -75 -52 -13 -12 -28 -20 -33 -17 -4 3 -22 -8 -39 -24 -17 -16 -31 -27 -31
-25 0 2 -8 -4 -18 -13 -44 -42 -65 -54 -80 -48 -9 3 -13 3 -9 -1 4 -4 1 -14
-6 -22 -10 -13 -9 -14 3 -7 8 5 -13 -19 -48 -54 -34 -34 -76 -88 -92 -119 -17
-31 -35 -64 -40 -72 -6 -8 -35 -67 -66 -130 -57 -120 -62 -117 -12 10 59 152
161 319 299 491 332 415 796 710 1343 854 106 28 327 65 388 65 42 0 68 8 68
21 0 12 -126 11 -210 -1 -36 -5 -111 -10 -168 -12 -65 -2 -107 -7 -113 -15 -6
-6 -17 -9 -25 -6 -8 3 -20 1 -27 -5 -6 -5 -41 -12 -77 -16 -93 -10 -222 -37
-245 -51 -11 -7 -45 -20 -75 -30 -30 -9 -90 -35 -134 -56 -43 -22 -81 -37 -84
-35 -6 6 19 31 38 39 12 4 12 6 -2 6 -9 1 -23 -6 -32 -14 -8 -8 -18 -15 -21
-15 -14 0 -83 -36 -168 -87 -48 -29 -90 -53 -93 -53 -3 0 -17 -11 -32 -25 -15
-14 -32 -25 -39 -25 -7 0 -20 -11 -28 -24 -15 -23 -53 -48 -40 -26 3 6 1 10
-4 10 -6 0 -11 -6 -11 -14 0 -8 -16 -20 -35 -26 -19 -6 -35 -15 -35 -19 0 -3
-32 -27 -71 -51 -40 -25 -84 -57 -98 -71 -27 -26 -48 -37 -66 -35 -5 0 -9 4
-8 7 1 3 -4 6 -11 6 -7 0 -13 -6 -13 -13 0 -7 4 -11 9 -8 4 3 8 1 8 -5 0 -5
-18 -24 -40 -41 -24 -19 -40 -26 -40 -18 0 7 -8 -2 -17 -19 -21 -38 -134 -165
-141 -158 -9 9 -43 -45 -36 -56 5 -8 3 -9 -6 -4 -10 6 -12 4 -7 -9 4 -9 3 -15
-2 -11 -5 3 -16 -7 -24 -22 -42 -81 -77 -136 -77 -120 0 7 59 119 112 212 161
285 510 606 913 839 191 110 517 240 718 286 54 12 96 24 94 27 -9 8 -225 -48
-337 -88 -63 -22 -130 -43 -147 -46 -18 -3 -31 -9 -28 -14 3 -4 -11 -11 -32
-15 -21 -4 -58 -15 -81 -26 -24 -10 -49 -15 -54 -11 -7 3 -8 1 -4 -5 7 -11 -7
-17 -29 -12 -5 1 -7 -2 -2 -6 8 -9 -94 -55 -105 -48 -5 3 -8 0 -8 -5 0 -6 -7
-11 -16 -11 -9 0 -12 -5 -8 -12 5 -7 2 -9 -9 -5 -9 3 -17 2 -19 -2 -2 -4 -23
-20 -47 -35 -24 -15 -40 -23 -37 -17 4 7 1 8 -8 5 -9 -3 -13 -11 -10 -16 4 -6
1 -8 -7 -6 -14 5 -61 -22 -92 -54 -10 -10 -24 -15 -30 -12 -7 4 -9 4 -5 -1 11
-11 -90 -75 -119 -75 -8 0 -11 -5 -7 -11 4 -7 1 -10 -7 -7 -7 2 -18 1 -24 -4
-5 -5 -26 -19 -45 -32 -19 -12 -34 -28 -32 -35 1 -7 -2 -10 -7 -7 -5 4 -38
-21 -73 -54 -35 -33 -66 -60 -71 -60 -4 0 -23 -18 -43 -40 -20 -22 -43 -40
-51 -40 -8 0 -11 -4 -8 -10 3 -5 3 -10 -2 -10 -4 0 -44 -33 -88 -74 -43 -41
-83 -72 -89 -69 -5 3 -6 2 -3 -4 4 -5 -7 -23 -23 -38 -17 -16 -30 -25 -30 -19
0 5 -7 0 -15 -10 -11 -15 -18 -17 -26 -9 -31 31 384 458 602 621 497 372 1036
579 1639 632 146 12 490 4 640 -15z m-1734 -671 c-22 -15 -36 -18 -36 -6 0 9
43 30 50 24 3 -2 -4 -10 -14 -18z m-180 -113 c-15 -16 -56 -35 -56 -26 0 4 63
45 69 45 2 0 -4 -9 -13 -19z m1753 -107 c10 -9 -35 -3 -49 6 -11 8 -7 9 15 4
17 -4 32 -8 34 -10z m476 -94 c3 -6 -1 -7 -9 -4 -18 7 -21 14 -7 14 6 0 13 -4
16 -10z m-2541 -45 c-4 -8 -11 -15 -16 -15 -6 0 -5 6 2 15 7 8 14 15 16 15 2
0 1 -7 -2 -15z m-81 -83 c-10 -10 -20 -17 -22 -16 -6 5 20 34 30 34 5 0 1 -8
-8 -18z m-83 -92 c-52 -60 -79 -83 -41 -34 38 49 86 101 90 98 2 -2 -20 -30
-49 -64z m3090 34 c0 -2 -7 -4 -15 -4 -8 0 -15 4 -15 10 0 5 7 7 15 4 8 -4 15
-8 15 -10z m105 -54 c3 -5 2 -10 -4 -10 -5 0 -13 5 -16 10 -3 6 -2 10 4 10 5
0 13 -4 16 -10z m-3718 -73 c-19 -25 -38 -43 -42 -39 -5 4 -6 -3 -3 -15 4 -16
2 -20 -9 -16 -12 5 -14 1 -8 -18 5 -18 4 -20 -4 -9 -8 12 -12 9 -20 -13 -6
-16 -15 -26 -20 -23 -8 5 -28 -28 -29 -48 0 -5 -4 -12 -9 -15 -4 -3 -21 -25
-36 -48 -45 -71 -39 -48 10 35 51 87 66 109 136 205 31 43 53 65 59 59 6 -6
-3 -27 -25 -55z m3808 3 c3 -5 2 -10 -4 -10 -5 0 -13 5 -16 10 -3 6 -2 10 4
10 5 0 13 -4 16 -10z m-1078 -31 c281 -37 521 -126 738 -272 144 -96 272 -210
349 -308 10 -13 26 -33 35 -43 16 -19 16 -19 -11 0 -15 10 -30 26 -33 34 -8
24 -102 111 -116 108 -7 -2 -13 2 -14 9 0 6 -4 15 -9 20 -5 5 -6 3 -2 -4 4 -7
2 -13 -4 -13 -7 0 -14 9 -17 21 -4 16 -8 17 -14 7 -5 -7 -9 -8 -9 -2 0 19 -36
54 -55 54 -10 0 -26 10 -36 22 -11 11 -19 17 -19 13 0 -4 -8 -1 -17 7 -10 8
-38 25 -63 37 -25 12 -49 28 -55 35 -5 6 -27 20 -47 29 -21 10 -38 22 -38 28
0 6 -4 7 -10 4 -5 -3 -10 -1 -10 4 0 6 -7 11 -15 11 -8 0 -15 -4 -15 -10 0
-16 -27 -12 -34 6 -3 8 -10 13 -15 10 -15 -10 -43 6 -37 20 3 8 -1 14 -10 14
-8 0 -12 5 -9 10 3 6 2 10 -4 10 -5 0 -13 -4 -16 -10 -4 -6 -14 -5 -28 4 -12
8 -48 20 -79 27 -32 7 -58 15 -58 19 0 12 -77 28 -92 19 -16 -11 -44 -12 -34
-2 4 4 -30 17 -76 28 -112 28 -406 34 -518 10 -41 -9 -88 -16 -105 -16 -24 1
-27 -1 -15 -10 13 -9 12 -10 -3 -5 -34 11 -283 -67 -339 -106 -16 -11 -28 -17
-28 -13 0 8 -113 -56 -122 -69 -6 -8 -8 -7 -8 1 0 7 32 31 72 54 183 107 376
174 598 208 80 13 356 13 447 0z m-170 -133 c13 -29 22 -35 61 -41 l44 -7 -30
-31 c-16 -18 -32 -45 -36 -60 l-7 -29 -34 26 c-18 14 -44 26 -57 26 -13 1 -41
16 -62 35 l-39 35 27 0 c38 0 63 16 81 50 20 39 32 38 52 -4z m1429 14 c0 -12
-4 -16 -9 -11 -5 5 -6 14 -3 20 10 15 12 14 12 -9z m-1801 -71 c5 -15 16 -19
51 -19 49 0 54 -7 24 -33 -13 -11 -20 -29 -20 -51 l0 -35 -35 15 c-19 7 -48
14 -64 14 -31 0 -81 18 -81 30 0 3 15 13 33 21 24 11 35 24 46 57 10 34 16 40
27 31 7 -6 16 -19 19 -30z m740 -11 c9 -43 20 -55 56 -63 39 -9 37 -21 -6 -35
-19 -6 -35 -16 -35 -21 0 -14 -33 -11 -58 7 -21 14 -25 14 -48 0 -24 -17 -24
-16 -22 13 1 20 -6 39 -22 56 -13 14 -22 25 -19 26 2 0 22 2 43 3 27 1 44 8
55 23 24 33 48 29 56 -9z m-1065 -95 c6 -7 24 -13 40 -13 34 0 36 -6 15 -35
-10 -12 -13 -30 -9 -51 l6 -32 -49 10 c-50 10 -153 56 -153 69 0 4 17 11 38
16 29 7 41 16 56 47 18 36 20 38 32 20 7 -10 18 -25 24 -31z m1396 7 c14 -35
20 -40 49 -40 19 0 37 -4 40 -10 8 -13 -39 -60 -60 -60 -12 0 -15 -6 -10 -20
6 -18 4 -18 -25 -9 -17 6 -46 9 -66 7 -33 -4 -34 -3 -29 22 4 19 -1 32 -20 50
-34 31 -32 40 9 40 27 0 39 7 56 30 12 17 26 30 31 30 5 0 16 -18 25 -40z m94
-115 c0 -8 -7 -15 -15 -15 -16 0 -20 12 -8 23 11 12 23 8 23 -8z m-350 -55 c8
-5 11 -10 5 -10 -5 0 -17 5 -25 10 -8 5 -10 10 -5 10 6 0 17 -5 25 -10z m80
-32 c10 -6 7 -7 -10 -2 -14 3 -32 11 -40 16 -10 6 -7 7 10 2 14 -3 32 -11 40
-16z m-384 1 c150 -26 297 -88 408 -171 68 -51 176 -170 176 -195 0 -14 -49
-8 -83 9 -12 6 -23 5 -32 -2 -16 -14 -43 -7 -71 18 -34 29 -83 62 -94 62 -5 0
-10 5 -10 10 0 6 -6 10 -14 10 -8 0 -21 6 -28 13 -26 26 -67 49 -78 42 -5 -3
-13 0 -16 8 -3 9 -15 12 -32 10 -22 -4 -24 -2 -12 7 13 9 12 11 -5 9 -11 -1
-27 0 -35 3 -112 42 -290 56 -418 34 -140 -24 -245 -75 -378 -183 -47 -37 -68
-43 -59 -14 7 24 -15 23 -39 -2 -10 -9 -28 -17 -42 -17 -13 0 -24 -4 -24 -10
0 -5 -6 -10 -14 -10 -40 0 39 105 139 185 112 89 237 147 386 180 77 16 292
19 375 4z m-2106 -114 c0 -9 -33 -24 -99 -45 -54 -16 -103 -30 -109 -30 -15 0
-195 -61 -207 -70 -5 -4 -75 -30 -155 -58 -80 -28 -180 -67 -223 -86 -43 -20
-81 -36 -85 -36 -18 2 131 70 288 132 96 39 189 76 205 83 37 16 135 47 239
75 43 11 90 27 105 35 33 18 41 18 41 0z m30 5 c0 -5 -5 -10 -11 -10 -5 0 -7
5 -4 10 3 6 8 10 11 10 2 0 4 -4 4 -10z m894 -35 c23 -30 33 -35 67 -35 21 0
39 -3 39 -6 0 -3 -13 -17 -30 -31 -31 -26 -37 -51 -20 -84 14 -26 -5 -25 -49
2 -31 19 -34 19 -51 4 -19 -17 -40 -13 -40 7 0 13 -27 35 -57 48 -29 12 -30
30 -3 30 11 0 36 6 55 14 27 12 35 22 41 50 3 20 10 36 14 36 4 0 20 -16 34
-35z m2076 -10 c0 -20 36 -46 74 -52 20 -3 36 -9 36 -13 0 -5 -16 -18 -35 -30
-20 -13 -35 -30 -35 -41 0 -20 -34 -27 -44 -10 -6 9 -63 0 -83 -12 -6 -4 -9
11 -9 35 1 37 -3 45 -33 65 -32 22 -32 23 -10 23 31 0 84 33 100 61 11 22 12
22 25 4 8 -10 14 -24 14 -30z m-3363 -37 c-3 -8 -6 -5 -6 6 -1 11 2 17 5 13 3
-3 4 -12 1 -19z m2482 -13 c39 -8 98 -26 132 -40 99 -40 191 -105 148 -105 -6
0 -43 11 -82 24 -216 72 -495 85 -687 31 -30 -9 -59 -17 -65 -18 -5 -2 -21 -9
-33 -16 -13 -7 -26 -10 -29 -7 -10 10 41 46 123 86 136 68 311 83 493 45z
m1046 -221 c266 -31 694 -110 957 -175 361 -89 556 -156 662 -227 24 -16 100
-48 170 -72 70 -23 129 -47 131 -54 2 -6 6 -42 9 -81 l6 -70 -45 49 c-40 43
-56 52 -148 81 -56 18 -113 35 -127 37 l-25 3 0 -160 0 -159 50 -14 c121 -33
275 -84 275 -91 0 -5 -9 -20 -20 -34 -14 -18 -20 -40 -20 -80 0 -30 -3 -75 -6
-100 l-6 -45 -42 43 c-33 35 -56 48 -124 69 -46 14 -88 26 -95 26 -15 0 -20
-119 -11 -276 l6 -112 41 -15 c56 -21 205 -64 241 -70 18 -3 39 1 53 10 23 15
23 15 23 -23 0 -22 6 -67 14 -101 7 -35 10 -63 6 -63 -4 0 -17 11 -29 24 -33
35 -101 59 -311 112 -184 45 -186 45 -265 34 -44 -7 -96 -10 -115 -8 l-35 4
30 7 c124 31 119 28 127 87 9 63 9 863 1 959 -6 68 -28 102 -80 122 -22 8 -32
29 -14 29 5 0 28 -7 52 -16 42 -14 282 -74 297 -74 13 1 -43 29 -58 30 -8 0
-28 7 -43 15 -16 8 -46 16 -67 17 -21 2 -36 7 -32 12 3 5 -4 7 -15 4 -11 -3
-31 0 -43 7 -13 7 -30 11 -37 8 -7 -3 -13 0 -13 6 0 6 -6 11 -14 11 -7 0 -26
7 -42 14 -15 8 -31 13 -36 10 -4 -3 -8 -1 -8 4 0 5 -10 12 -22 15 -13 3 -48
13 -78 22 -79 23 -241 58 -267 58 -13 -1 -23 3 -23 7 0 8 -64 23 -100 25 -8 0
-30 4 -49 9 -24 6 -36 5 -42 -5 -7 -11 -9 -11 -9 2 0 15 -33 25 -120 34 -8 1
-17 3 -20 4 -3 1 -22 5 -44 7 -55 7 -60 8 -67 17 -3 4 -39 10 -80 12 -50 3
-66 2 -49 -4 18 -6 20 -9 7 -10 -9 -1 -45 10 -78 24 -34 13 -64 23 -68 21 -7
-5 -153 26 -226 47 -66 20 -47 20 110 1z m-520 -93 c308 -25 697 -70 710 -83
7 -6 -5 -8 -35 -4 -25 3 -97 10 -160 16 -63 6 -149 15 -190 20 -262 33 -650
52 -1110 54 -260 0 -357 3 -270 7 194 9 902 2 1055 -10z m-998 -190 c73 -17
83 -17 97 -3 19 20 20 18 40 -116 24 -154 21 -169 -14 -100 -50 97 -134 140
-275 142 -91 1 -158 -19 -196 -60 -20 -22 -24 -36 -24 -91 0 -63 2 -67 38 -98
21 -18 108 -63 195 -101 304 -133 383 -214 369 -381 -17 -212 -224 -348 -501
-330 -125 9 -299 67 -309 104 -3 10 -9 59 -13 108 l-7 90 44 -46 c89 -95 258
-151 383 -128 120 21 176 72 176 159 0 87 -45 129 -216 204 -255 111 -320 155
-360 239 -44 96 -25 211 50 294 105 116 313 162 523 114z m1143 -5 c79 -11
107 -11 112 -3 5 8 11 8 17 2 11 -11 55 -275 47 -283 -3 -2 -16 21 -30 51 -29
67 -70 96 -171 122 -146 37 -314 -8 -401 -108 -110 -127 -136 -357 -57 -524
35 -74 139 -179 213 -214 146 -71 330 -56 405 32 13 16 26 29 29 29 8 0 8
-190 0 -228 -6 -31 -7 -31 -23 -11 -15 19 -18 19 -81 5 -84 -20 -250 -20 -348
0 -99 20 -223 81 -295 144 -70 64 -140 168 -175 262 -23 64 -26 88 -27 194 l0
122 48 94 c62 124 139 202 252 258 137 68 275 83 485 56z m-2258 -37 c174 -58
304 -191 352 -359 15 -55 25 -212 14 -240 -3 -8 -9 -25 -13 -37 -4 -13 -10
-23 -14 -23 -4 0 -27 -39 -50 -86 -62 -123 -173 -234 -291 -291 -116 -56 -185
-73 -322 -80 -196 -10 -336 37 -452 151 -100 99 -136 192 -136 356 0 119 11
164 61 269 77 158 243 294 424 346 126 37 308 34 427 -6z m3320 16 c84 -18
230 -87 302 -142 229 -176 304 -553 157 -780 -109 -168 -257 -231 -516 -221
-178 8 -299 53 -429 162 -91 75 -155 177 -207 331 -31 90 -34 259 -6 315 59
120 137 214 217 264 43 27 131 62 185 75 64 14 217 12 297 -4z m-4496 -102
c63 -21 145 -102 162 -159 23 -77 17 -110 -29 -151 -22 -21 -56 -62 -76 -91
-54 -81 -127 -157 -193 -200 l-59 -40 78 -73 c44 -42 122 -136 180 -217 74
-102 113 -148 135 -157 17 -7 42 -18 56 -23 43 -18 -57 -15 -119 4 -50 14 -57
14 -121 -5 -37 -12 -77 -21 -88 -21 -27 0 -78 60 -189 221 -51 74 -104 148
-117 164 l-25 30 -1 -40 c0 -108 22 -382 34 -405 12 -25 12 -26 -16 -22 -35 5
-135 -22 -202 -54 -69 -33 -76 -30 -33 14 l37 38 0 496 c0 384 -3 498 -12 506
-7 6 -29 15 -48 20 l-35 10 69 32 c104 48 287 113 371 133 51 12 194 6 241
-10z m2068 -1319 c3 -9 6 -74 6 -145 0 -122 -1 -129 -20 -129 -11 0 -21 6 -21
13 -4 43 -6 245 -2 260 5 21 29 22 37 1z m125 2 c7 -8 27 -51 45 -96 l33 -82
43 96 c32 70 48 96 62 96 10 0 18 -6 18 -14 0 -13 -106 -265 -116 -275 -10
-10 -26 20 -68 124 -56 138 -63 165 -43 165 8 0 20 -6 26 -14z m401 -1 c21
-25 118 -225 125 -256 9 -40 -18 -39 -42 1 -17 29 -19 30 -94 30 -73 0 -78 -1
-81 -22 -4 -28 -48 -39 -48 -12 0 22 110 274 120 274 4 0 13 -7 20 -15z m390
-17 c0 -30 -1 -30 -39 -24 -37 6 -39 5 -45 -25 -3 -17 -6 -71 -6 -120 0 -82
-2 -89 -20 -89 -19 0 -20 7 -20 120 l0 120 -45 0 c-41 0 -45 2 -45 25 l0 26
110 -2 110 -1 0 -30z m-1128 12 c72 -20 89 -83 37 -136 l-32 -33 32 -38 c33
-39 41 -73 17 -73 -14 0 -62 49 -103 105 l-22 30 -1 -67 c0 -71 -9 -88 -34
-62 -13 12 -16 41 -16 150 l0 134 43 0 c23 0 59 -5 79 -10z m1377 1 c8 -5 11
-17 7 -28 -5 -17 -13 -19 -66 -15 l-60 4 0 -36 0 -36 55 0 c53 0 55 -1 55 -26
0 -26 -1 -26 -50 -22 -53 5 -50 8 -54 -44 -1 -9 19 -15 54 -18 50 -5 55 -7 58
-30 l3 -25 -78 3 c-43 2 -79 5 -79 6 -1 0 -4 63 -8 139 l-7 137 78 0 c43 0 84
-4 92 -9z m-1639 -30 c29 -29 37 -61 24 -96 -8 -21 -76 -55 -109 -55 -20 0
-25 -5 -26 -27 -3 -74 -4 -78 -24 -78 -19 0 -20 8 -23 141 l-3 141 66 2 c61 2
68 0 95 -28z m1990 -91 l0 -119 58 -3 c50 -3 57 -6 60 -25 3 -22 0 -23 -65
-23 -37 0 -75 5 -83 10 -12 7 -16 38 -18 145 l-4 135 26 0 26 0 0 -120z m250
11 c0 -54 3 -119 6 -145 6 -44 6 -46 -18 -46 l-26 0 -4 138 c-3 75 -3 140 -1
145 2 4 13 7 24 7 17 0 19 -8 19 -99z m170 47 c20 -24 55 -69 79 -100 l43 -58
25 38 c50 73 95 122 113 122 21 0 25 -22 35 -187 6 -99 5 -103 -15 -103 -25 0
-26 3 -37 110 l-8 85 -55 -83 c-30 -45 -57 -82 -60 -82 -3 0 -14 15 -24 33
-11 17 -35 57 -55 87 l-36 55 -5 -84 c-5 -89 -21 -115 -40 -66 -12 31 -14 275
-2 275 4 0 23 -19 42 -42z m-2921 -91 c34 -68 61 -131 61 -140 0 -27 -39 -21
-52 9 -10 22 -17 25 -41 20 -16 -3 -48 -6 -71 -6 -37 0 -43 -3 -53 -30 -8 -20
-18 -30 -32 -30 -12 0 -21 3 -21 8 0 9 80 194 109 250 12 23 26 42 31 42 5 0
36 -55 69 -123z m-311 -45 c2 -135 2 -142 -17 -142 -25 0 -29 16 -30 129 -2
120 6 163 28 159 14 -3 16 -23 19 -146z m3785 111 c53 -5 57 -8 57 -32 0 -23
-4 -26 -36 -26 l-36 0 1 -108 c2 -119 -1 -132 -29 -117 -17 9 -20 24 -22 128
l-3 117 -42 3 c-39 3 -43 6 -43 29 0 25 1 26 48 19 26 -4 73 -9 105 -13z
m-3994 -17 c89 -46 77 -191 -19 -241 -47 -24 -132 -38 -142 -23 -4 7 -8 70 -8
140 l0 127 28 4 c60 9 114 6 141 -7z m-283 -29 c2 -7 3 -74 2 -148 l-3 -134
-40 41 c-22 23 -60 60 -85 82 l-45 40 4 -85 c3 -83 -3 -102 -31 -103 -5 0 -8
63 -8 140 0 77 3 140 8 140 4 0 40 -32 80 -70 l72 -71 0 91 c0 84 1 90 20 90
11 0 23 -6 26 -13z m4617 -4 c13 -3 16 -10 11 -26 -3 -12 -7 -23 -8 -23 0 -1
-23 2 -49 6 -51 8 -62 0 -55 -37 2 -14 14 -19 48 -21 44 -3 60 -14 60 -41 0
-11 -12 -13 -55 -8 -55 6 -55 5 -55 -22 0 -38 17 -51 66 -51 28 0 44 -5 48
-15 9 -24 -4 -47 -23 -40 -9 4 -41 9 -71 12 -30 3 -58 11 -62 17 -4 6 -8 69
-8 139 l0 129 68 -7 c37 -4 75 -9 85 -12z m241 -45 c50 -13 101 -63 115 -113
15 -53 14 -70 -5 -106 -23 -44 -66 -59 -139 -48 -32 6 -60 11 -61 12 -1 1 -4
64 -6 140 l-3 138 30 -7 c17 -3 48 -10 69 -16z m-5186 -8 c4 0 5 -60 2 -132
-4 -116 -7 -133 -22 -136 -17 -3 -18 9 -18 138 0 126 2 141 16 136 9 -3 19 -6
22 -6z m3392 -449 c418 -27 791 -71 1130 -132 235 -43 614 -135 785 -191 l100
-33 3 -49 c3 -39 0 -48 -12 -43 -131 51 -466 142 -701 191 -495 103 -918 153
-1540 181 -747 34 -1421 5 -2095 -91 -317 -45 -816 -155 -1062 -234 -52 -16
-98 -30 -102 -30 -4 0 -6 19 -4 42 l3 42 90 29 c169 52 550 146 743 182 334
62 760 113 1127 135 99 6 200 12 225 14 92 8 1151 -3 1310 -13z m-605 -231
c-29 -12 -275 -12 -275 0 0 6 55 10 148 9 91 0 139 -4 127 -9z m750 -76 c-41
-36 -210 -146 -265 -174 -55 -28 -52 -24 -44 -44 4 -9 17 -16 34 -16 16 0 35
-7 44 -15 16 -16 56 -21 56 -6 0 5 22 17 49 27 28 10 47 22 44 27 -3 6 -1 7 5
3 6 -4 28 4 49 17 21 13 48 27 61 31 12 4 22 12 22 17 0 5 7 9 16 9 9 0 33 13
53 28 20 16 50 37 66 47 l30 19 -35 -38 c-70 -76 -258 -189 -393 -236 -43 -15
-53 -23 -55 -44 -4 -32 -13 -33 -30 -5 -11 17 -20 20 -48 16 -29 -5 -34 -3
-34 13 0 11 11 27 26 36 18 12 24 24 22 43 -4 32 -4 32 -146 -17 l-112 -38 24
-23 c19 -18 31 -22 55 -16 33 7 41 -4 17 -24 -11 -9 -12 -20 -5 -44 5 -18 9
-33 9 -35 0 -2 -10 4 -22 12 -28 20 -57 20 -64 1 -9 -21 -31 -19 -37 4 -3 15
-11 18 -27 14 -18 -5 -21 -2 -18 13 2 12 11 18 23 17 24 -2 35 13 35 51 0 27
-1 28 -37 23 -21 -4 -81 -11 -133 -17 -52 -6 -101 -13 -108 -15 -21 -7 3 -41
38 -53 35 -13 38 -27 10 -42 -14 -8 -20 -21 -20 -46 l0 -35 -26 20 c-32 25
-50 27 -58 6 -10 -26 -23 -16 -18 14 3 23 -1 30 -17 36 -17 5 -19 9 -8 26 6
10 20 19 29 19 16 0 38 27 38 48 0 5 -44 15 -97 21 -54 7 -117 14 -140 18 -41
5 -43 4 -43 -20 0 -26 23 -57 43 -57 8 0 7 -4 -1 -12 -7 -7 -12 -23 -12 -37
l0 -25 -20 22 c-23 24 -41 27 -71 12 -16 -9 -19 -7 -19 14 0 14 -8 30 -17 35
-16 9 -16 12 -3 21 8 5 25 10 37 10 12 0 29 10 37 22 15 22 15 23 -47 46 -52
20 -89 35 -199 80 -4 2 -8 -6 -8 -18 0 -14 9 -24 30 -31 35 -13 44 -51 10 -42
-18 5 -20 0 -20 -34 0 -52 -8 -58 -37 -27 -13 14 -30 24 -37 21 -8 -3 -13 1
-12 11 1 13 -10 18 -44 22 -42 5 -81 22 -186 80 -56 32 -190 129 -211 154
l-18 21 25 -21 c38 -32 177 -123 202 -133 13 -5 47 -23 76 -40 29 -17 63 -33
76 -37 39 -9 136 42 136 72 0 7 -30 30 -67 50 -74 40 -203 124 -203 131 0 5
54 -26 100 -57 42 -29 180 -96 285 -140 55 -22 109 -45 120 -50 31 -14 111
-28 231 -41 95 -10 131 -10 255 5 138 16 279 51 279 68 0 4 9 8 19 8 11 0 23
5 26 11 4 6 13 8 21 5 7 -3 16 -1 19 5 4 5 10 7 15 4 5 -3 16 2 24 11 9 8 16
12 16 8 0 -4 8 0 18 8 9 9 26 18 37 20 11 2 19 10 17 17 -1 6 3 11 10 10 19
-4 93 33 188 95 93 61 111 69 65 30z m550 -70 c-148 -128 -513 -332 -870 -484
-137 -59 -311 -91 -523 -97 -184 -6 -244 0 -435 43 -132 29 -295 100 -214 93
47 -4 88 1 82 11 -3 6 -1 10 4 10 6 0 11 -5 11 -11 0 -6 7 -8 16 -5 12 5 15 2
10 -11 -4 -10 -4 -14 0 -10 4 4 24 -9 45 -29 26 -26 48 -37 79 -41 31 -4 41
-3 36 5 -4 7 -3 12 3 12 5 0 22 11 36 25 41 37 105 21 159 -42 25 -29 34 -33
77 -33 45 0 52 4 99 51 45 46 54 50 85 46 20 -3 59 -16 88 -30 79 -39 92 -39
124 -5 15 17 40 43 55 59 19 21 36 29 62 29 19 0 38 -4 41 -10 3 -5 15 -10 26
-10 10 0 19 -4 19 -9 0 -14 46 -6 62 10 27 28 57 76 51 83 -3 3 -1 6 5 6 7 0
12 -5 12 -11 0 -8 4 -8 13 -2 6 6 44 23 82 38 39 15 79 33 90 39 11 7 34 16
50 20 17 4 44 18 60 30 17 12 56 30 88 40 31 10 57 22 57 27 0 4 7 5 17 2 11
-4 14 -3 9 5 -5 8 -2 10 8 6 11 -4 16 0 16 11 0 9 5 13 10 10 6 -4 17 -1 25 5
8 6 20 8 26 4 7 -4 9 -3 6 3 -4 6 3 13 16 17 12 3 65 34 117 70 52 36 97 65
100 65 3 0 -13 -15 -35 -35z m-2735 -94 c44 -31 187 -107 407 -216 117 -58
216 -110 219 -116 4 -5 -4 -4 -17 3 -13 7 -29 14 -36 15 -62 10 -640 329 -675
372 -12 14 44 -18 102 -58z m2809 -73 c-268 -259 -612 -457 -959 -551 -233
-63 -582 -85 -825 -52 -304 42 -581 141 -855 306 -101 60 -240 157 -240 166 0
7 15 -3 93 -59 194 -141 502 -283 736 -342 175 -43 217 -51 383 -66 264 -23
608 24 868 120 154 56 325 142 340 171 6 11 16 20 23 20 7 0 6 -4 -3 -10 -8
-5 -10 -10 -4 -10 15 0 36 25 27 33 -3 4 3 7 15 7 12 0 22 5 22 11 0 6 6 9 14
6 8 -3 20 1 26 9 7 8 17 14 22 14 9 0 75 46 93 66 6 6 23 19 39 29 39 24 166
127 190 154 11 12 21 19 24 16 3 -3 -10 -20 -29 -38z m657 -128 c-61 -87 -287
-302 -431 -410 -119 -89 -298 -191 -425 -244 -36 -15 -78 -33 -95 -40 -136
-62 -446 -150 -650 -186 -301 -53 -734 -56 -1060 -8 -123 19 -78 22 62 5 70
-9 218 -19 329 -23 543 -17 1027 83 1482 308 287 142 456 265 672 489 69 71
126 130 128 130 2 0 -3 -9 -12 -21z m-386 -83 c0 -2 -8 -10 -17 -17 -16 -13
-17 -12 -4 4 13 16 21 21 21 13z m430 -79 c0 -2 -14 -16 -32 -33 -18 -16 -26
-20 -18 -9 19 25 50 52 50 42z m-4105 -147 c10 -11 16 -20 13 -20 -3 0 -13 9
-23 20 -10 11 -16 20 -13 20 3 0 13 -9 23 -20z m3715 -185 c0 -2 -10 -9 -22
-15 -22 -11 -22 -10 -4 4 21 17 26 19 26 11z m-60 -40 c0 -10 -94 -65 -109
-65 -9 0 11 16 44 34 68 39 65 38 65 31z m-165 -101 c-23 -19 -276 -144 -289
-144 -9 0 292 157 304 159 3 0 -4 -7 -15 -15z m-2900 -22 c-3 -3 -11 0 -18 7
-9 10 -8 11 6 5 10 -3 15 -9 12 -12z m198 -69 c27 -8 47 -17 44 -19 -6 -6 -93
22 -116 37 -13 9 -12 9 4 4 11 -4 42 -14 68 -22z m114 -39 c-3 -3 -12 -4 -19
-1 -8 3 -5 6 6 6 11 1 17 -2 13 -5z m2253 -33 c-19 -10 -46 -21 -60 -25 -14
-3 -2 5 25 18 58 28 87 34 35 7z m-2028 -27 c40 -9 100 -22 133 -29 33 -7 49
-13 35 -14 -27 -1 -239 45 -248 54 -8 8 0 6 80 -11z m1910 -19 c-51 -22 -273
-87 -279 -81 -3 2 15 10 38 16 24 6 89 26 144 44 106 35 152 45 97 21z m-335
-101 c-3 -3 -12 -4 -19 -1 -8 3 -5 6 6 6 11 1 17 -2 13 -5z m-57 -14 c-14 -4
-36 -8 -50 -8 l-25 0 25 8 c14 4 36 8 50 8 l25 0 -25 -8z m-83 -16 c-3 -3 -12
-4 -19 -1 -8 3 -5 6 6 6 11 1 17 -2 13 -5z m-90 -20 c-3 -3 -12 -4 -19 -1 -8
3 -5 6 6 6 11 1 17 -2 13 -5z m-310 -40 c-3 -3 -12 -4 -19 -1 -8 3 -5 6 6 6
11 1 17 -2 13 -5z"/>
<path d="M3843 7133 c9 -2 25 -2 35 0 9 3 1 5 -18 5 -19 0 -27 -2 -17 -5z"/>
<path d="M3648 7113 c6 -2 18 -2 25 0 6 3 1 5 -13 5 -14 0 -19 -2 -12 -5z"/>
<path d="M3583 7103 c9 -2 23 -2 30 0 6 3 -1 5 -18 5 -16 0 -22 -2 -12 -5z"/>
<path d="M3528 7093 c6 -2 18 -2 25 0 6 3 1 5 -13 5 -14 0 -19 -2 -12 -5z"/>
<path d="M3488 7083 c7 -3 16 -2 19 1 4 3 -2 6 -13 5 -11 0 -14 -3 -6 -6z"/>
<path d="M4108 6863 c7 -3 16 -2 19 1 4 3 -2 6 -13 5 -11 0 -14 -3 -6 -6z"/>
<path d="M3958 6838 c-13 -3 31 -6 97 -6 66 0 128 2 137 6 22 9 -203 9 -234 0z"/>
<path d="M4236 6829 c3 -5 35 -9 71 -9 37 0 64 2 62 4 -9 8 -138 13 -133 5z"/>
<path d="M4398 6813 c7 -3 16 -2 19 1 4 3 -2 6 -13 5 -11 0 -14 -3 -6 -6z"/>
<path d="M4473 6803 c9 -2 25 -2 35 0 9 3 1 5 -18 5 -19 0 -27 -2 -17 -5z"/>
<path d="M4535 6800 c-5 -9 23 -15 48 -11 4 1 16 -3 26 -8 10 -6 31 -13 47
-16 61 -14 119 -26 132 -27 6 -1 12 -5 12 -10 0 -4 15 -7 33 -7 23 1 26 3 10
6 -13 2 -23 9 -23 14 0 5 -12 9 -27 9 -14 0 -35 7 -45 17 -10 9 -18 12 -18 6
0 -6 -12 -8 -27 -5 -24 5 -25 6 -8 12 14 5 8 8 -20 7 -48 -1 -103 7 -112 16
-9 10 -21 9 -28 -3z"/>
<path d="M4890 6713 c-22 -5 -21 -6 15 -19 47 -16 72 -18 79 -5 3 5 -9 8 -27
7 -21 0 -31 3 -29 12 1 6 -1 11 -5 11 -5 -1 -19 -4 -33 -6z"/>
<path d="M5032 6646 c31 -13 111 -52 178 -85 66 -34 122 -61 124 -61 2 0 6 7
10 15 8 21 -36 47 -85 51 -22 2 -48 8 -57 14 -14 9 -13 10 7 4 17 -4 21 -3 16
6 -4 6 -17 9 -30 6 -25 -6 -43 8 -23 18 7 3 4 4 -8 1 -22 -6 -93 19 -78 27 5
3 3 3 -4 1 -8 -1 -23 4 -35 12 -12 8 -33 15 -47 15 -18 -1 -10 -7 32 -24z
m293 -125 c-6 -5 -25 10 -25 20 0 5 6 4 14 -3 8 -7 12 -15 11 -17z"/>
<path d="M5125 6630 c3 -5 11 -10 16 -10 6 0 7 5 4 10 -3 6 -11 10 -16 10 -6
0 -7 -4 -4 -10z"/>
<path d="M5356 6514 c-16 -16 -13 -34 5 -34 6 0 7 5 3 12 -4 7 -3 8 5 4 6 -4
9 -11 7 -15 -3 -4 36 -34 87 -66 184 -118 334 -243 474 -396 199 -217 363
-484 435 -705 l30 -92 48 -21 c27 -12 55 -21 62 -21 8 0 18 -4 24 -8 8 -8 148
-62 159 -62 2 0 1 9 -2 21 -4 16 -8 17 -14 7 -6 -9 -9 -2 -9 19 0 17 -4 33 -9
35 -5 2 -34 53 -65 113 -31 61 -68 133 -84 160 -16 28 -48 86 -72 130 -71 133
-276 425 -297 425 -3 0 -1 -6 4 -12 43 -55 156 -241 194 -318 50 -100 111
-251 105 -258 -2 -2 -13 21 -24 50 -20 52 -116 244 -150 296 -31 50 -135 187
-144 190 -17 7 -38 34 -33 43 4 5 -1 6 -10 3 -11 -5 -14 -2 -9 10 4 11 2 15
-7 11 -8 -3 -23 6 -33 20 -32 43 -65 75 -76 75 -5 0 -10 6 -10 14 0 18 -68 59
-86 52 -10 -4 -12 2 -7 24 6 33 -2 38 -28 15 -15 -14 -18 -14 -33 1 -14 13
-14 19 -4 33 10 13 10 14 -1 4 -10 -9 -23 -6 -57 13 -33 19 -49 22 -62 15 -14
-7 -19 -6 -19 4 0 7 6 11 14 8 7 -3 13 0 13 6 0 6 -7 11 -15 11 -8 0 -15 4
-15 9 0 5 -9 13 -20 16 -11 4 -18 11 -15 16 9 14 -2 11 -18 -6 -13 -13 -16
-13 -27 1 -11 12 -10 13 6 8 16 -5 15 -2 -5 15 -13 12 -31 21 -40 21 -9 0 -25
9 -34 21 -10 11 -24 18 -32 15 -7 -2 -16 3 -20 12 -5 14 -7 14 -15 2 -6 -8
-10 -12 -11 -7 -1 4 -3 12 -4 17 -1 6 -3 14 -4 19 0 5 -10 13 -21 16 -11 4
-18 11 -15 16 9 14 -2 11 -19 -7z m1123 -1154 c0 -13 -1 -13 -8 0 -5 8 -12 26
-15 40 l-7 25 15 -25 c9 -14 15 -32 15 -40z m30 -90 c0 -10 -3 -8 -9 5 -12 27
-12 43 0 25 5 -8 9 -22 9 -30z"/>
<path d="M5045 6140 c3 -5 8 -10 11 -10 2 0 4 5 4 10 0 6 -5 10 -11 10 -5 0
-7 -4 -4 -10z"/>
<path d="M5070 6126 c0 -2 7 -7 16 -10 8 -3 12 -2 9 4 -6 10 -25 14 -25 6z"/>
<path d="M1805 6009 c-4 -6 -5 -12 -2 -15 2 -3 7 2 10 11 7 17 1 20 -8 4z"/>
<path d="M6416 5990 c4 -8 41 -64 81 -123 77 -113 183 -304 183 -328 0 -8 -9
5 -21 28 -21 43 -67 99 -74 91 -3 -2 7 -35 21 -74 69 -182 151 -474 140 -493
-3 -4 48 -30 112 -58 64 -29 143 -63 175 -77 31 -14 57 -21 57 -16 0 6 -7 10
-16 10 -8 0 -12 5 -9 11 4 6 -2 13 -14 16 -11 3 -18 10 -15 15 3 5 -7 23 -24
39 -16 16 -40 55 -52 87 -30 81 -147 317 -187 379 -18 28 -33 54 -33 58 0 3
-18 33 -40 66 -22 33 -40 64 -40 67 0 4 -12 21 -27 37 -16 16 -27 33 -25 38 1
5 -1 6 -6 3 -5 -3 -15 10 -22 29 -7 19 -16 33 -19 31 -3 -2 -12 2 -19 10 -7 8
-10 14 -6 14 5 0 -79 103 -114 140 -13 13 -14 13 -6 0z"/>
<path d="M1775 5970 c-3 -5 -1 -10 4 -10 6 0 11 5 11 10 0 6 -2 10 -4 10 -3 0
-8 -4 -11 -10z"/>
<path d="M2156 5867 c3 -10 9 -15 12 -12 3 3 0 11 -7 18 -10 9 -11 8 -5 -6z"/>
<path d="M2964 5203 c10 -11 37 -12 30 -2 -3 5 -12 9 -21 9 -9 0 -13 -3 -9 -7z"/>
<path d="M6896 4132 c-9 -8 -7 -65 2 -78 10 -15 88 -33 176 -40 69 -6 75 -5
85 15 10 19 9 22 -16 32 -60 24 -242 76 -247 71z"/>
<path d="M2277 4600 c-79 -25 -120 -54 -173 -124 -52 -68 -92 -182 -75 -214 6
-11 15 -79 20 -153 11 -158 30 -218 96 -301 75 -96 163 -125 285 -93 180 47
304 189 331 380 32 235 -68 456 -232 508 -67 22 -178 21 -252 -3z"/>
<path d="M5756 4590 c-171 -68 -262 -314 -204 -550 46 -187 206 -327 390 -338
91 -5 145 15 200 76 18 20 38 38 43 38 6 1 15 11 21 23 7 13 16 27 22 33 6 6
8 17 5 26 -5 10 -2 13 6 8 8 -5 11 -3 10 5 -4 17 20 89 34 107 6 8 10 53 9
105 -4 217 -92 368 -261 449 -86 41 -199 49 -275 18z"/>
<path d="M1156 4495 c-27 -8 -53 -18 -58 -23 -8 -8 2 -267 18 -440 l6 -62 44
32 c66 48 147 137 173 192 33 66 40 171 16 232 -30 78 -89 99 -199 69z"/>
<path d="M4053 3170 l-22 -50 49 0 49 0 -22 50 c-12 27 -24 50 -27 50 -3 0
-15 -23 -27 -50z"/>
<path d="M3280 3216 c0 -26 5 -36 20 -41 28 -9 58 3 65 26 9 29 -12 49 -51 49
-32 0 -34 -2 -34 -34z"/>
<path d="M2987 3243 c-10 -9 -8 -93 2 -93 4 0 22 5 40 11 39 14 53 55 26 76
-20 14 -57 18 -68 6z"/>
<path d="M2485 3129 c-11 -29 -22 -58 -24 -63 -4 -9 76 -3 85 7 3 2 -6 28 -18
57 l-23 52 -20 -53z"/>
<path d="M1944 3149 c-7 -12 -6 -181 2 -188 2 -2 22 1 44 8 44 13 90 69 90
109 0 37 -52 82 -94 82 -19 0 -38 -5 -42 -11z"/>
<path d="M6588 3064 c-9 -8 3 -167 12 -178 12 -12 76 2 95 20 19 20 19 67 0
104 -21 40 -88 74 -107 54z"/>
<path d="M1438 2306 c-56 -11 -88 -29 -75 -42 9 -10 81 13 120 37 36 21 35 21
-45 5z"/>
<path d="M456 4339 c-3 -17 -7 -46 -7 -63 -2 -29 -2 -28 -9 9 -5 29 -8 33 -9
14 0 -14 -12 -38 -26 -53 -14 -15 -25 -34 -25 -41 0 -8 -9 -20 -20 -27 -12 -8
-20 -24 -20 -40 0 -16 -4 -28 -9 -28 -12 0 -45 -87 -43 -114 2 -28 -18 -52
-29 -34 -6 9 -9 6 -9 -9 0 -13 5 -23 10 -23 6 0 10 -5 10 -11 0 -5 -4 -8 -10
-4 -14 9 -38 -34 -50 -93 -7 -28 -15 -52 -19 -52 -12 0 -32 -75 -21 -78 16 -6
12 -28 -11 -67 -12 -20 -23 -57 -24 -83 -2 -26 -4 -49 -5 -52 -1 -3 -2 -9 -1
-14 1 -4 -3 -14 -9 -21 -6 -7 -12 -32 -15 -56 -2 -23 -9 -56 -16 -72 -9 -20
-9 -31 -2 -35 6 -4 11 -23 11 -42 0 -45 52 -249 104 -410 155 -480 387 -911
706 -1312 136 -171 449 -484 622 -622 523 -417 1115 -694 1755 -821 650 -129
1290 -104 1927 76 115 32 154 48 177 70 26 25 34 27 57 19 22 -9 29 -7 46 15
21 27 87 65 113 65 8 0 15 6 15 13 1 15 85 67 111 67 10 0 19 4 19 9 0 5 16
19 35 31 19 12 35 28 35 36 0 8 9 22 20 31 11 10 20 25 20 35 0 12 8 18 23 18
24 0 57 28 57 48 0 6 10 12 23 14 15 2 21 9 19 21 -2 12 4 21 17 24 12 3 21 9
21 14 0 5 7 9 15 9 7 0 18 6 22 13 10 16 73 61 96 70 12 5 16 13 12 26 -4 14
2 21 25 31 18 8 30 20 30 31 0 11 6 19 13 19 8 0 7 3 -3 10 -11 7 -9 11 13 19
16 6 32 11 37 11 9 0 22 28 17 38 -2 4 7 17 20 29 13 12 23 17 23 10 0 -15 31
15 34 34 4 24 50 89 64 89 7 0 11 4 8 8 -3 5 5 20 17 33 12 13 20 31 19 40 -2
10 5 20 17 24 10 3 22 12 25 20 3 8 13 15 21 15 9 0 14 4 11 9 -3 5 1 11 9 15
8 3 15 14 15 23 0 10 18 36 40 58 21 22 39 46 40 52 0 15 23 45 63 84 15 15
27 32 27 38 0 6 4 11 9 11 5 0 14 14 20 30 8 24 7 30 -5 30 -7 0 -14 5 -14 10
0 6 12 10 28 10 27 0 52 32 52 69 1 22 26 66 39 67 6 1 14 2 18 3 3 0 -2 11
-13 23 -15 17 -15 20 -3 16 11 -4 15 0 15 16 -1 12 4 20 12 19 6 -2 12 2 12 8
0 6 35 59 78 118 43 58 92 129 110 156 111 177 222 374 258 460 25 60 11 40
-47 -70 -171 -327 -399 -627 -690 -910 -134 -130 -219 -205 -314 -277 -846
-639 -1987 -878 -3025 -632 -526 124 -979 332 -1370 628 -58 43 -112 85 -120
93 -8 7 -35 29 -60 49 -174 140 -426 409 -598 637 -140 187 -196 277 -342 552
-91 171 -208 497 -255 710 -58 260 -92 615 -83 873 2 67 3 122 2 122 -1 0 -4
-14 -8 -31z m6430 -2551 c4 -7 4 -10 -1 -6 -4 4 -17 3 -29 -3 -20 -10 -20 -10
-2 5 24 19 23 19 32 4z m-80 -92 c18 -14 18 -16 2 -33 -17 -16 -18 -16 -18 0
0 9 6 17 13 17 6 1 1 7 -13 15 -14 8 -20 14 -14 15 5 0 19 -6 30 -14z m-1121
-1276 c3 -5 1 -10 -4 -10 -6 0 -11 5 -11 10 0 6 2 10 4 10 3 0 8 -4 11 -10z"/>
<path d="M482 3990 c0 -14 2 -19 5 -12 2 6 2 18 0 25 -3 6 -5 1 -5 -13z"/>
<path d="M507 3755 c7 -49 13 -58 13 -19 0 16 -5 36 -10 44 -6 10 -7 2 -3 -25z"/>
<path d="M526 3692 c-10 -42 3 -169 15 -151 6 9 8 -9 7 -46 -2 -69 9 -128 23
-119 13 8 11 58 -3 73 -7 8 -8 11 -3 8 12 -6 19 105 9 137 -5 15 -8 16 -15 5
-5 -9 -7 -3 -4 18 2 18 -1 35 -6 39 -5 3 -7 9 -4 14 3 4 1 19 -4 32 -8 22 -9
22 -15 -10z m41 -164 c-3 -7 -5 -2 -5 12 0 14 2 19 5 13 2 -7 2 -19 0 -25z"/>
<path d="M587 3469 c4 -13 8 -18 11 -10 2 7 -1 18 -6 23 -8 8 -9 4 -5 -13z"/>
<path d="M591 3403 c0 -12 -4 -30 -7 -40 -5 -17 -5 -17 6 0 6 10 9 28 7 40 -4
22 -4 22 -6 0z"/>
<path d="M580 3319 c0 -11 5 -17 10 -14 6 3 10 13 10 21 0 8 -4 14 -10 14 -5
0 -10 -9 -10 -21z"/>
<path d="M631 3304 c0 -11 3 -14 6 -6 3 7 2 16 -1 19 -3 4 -6 -2 -5 -13z"/>
<path d="M600 3259 c0 -27 26 -100 33 -93 4 4 7 2 7 -4 0 -6 -5 -14 -11 -18
-6 -3 -7 -9 -2 -13 4 -3 13 -19 19 -36 6 -16 16 -29 22 -27 16 3 15 -15 0 -21
-10 -3 -10 -9 0 -26 6 -11 12 -28 12 -36 0 -8 5 -15 11 -15 5 0 8 -3 5 -8 -7
-12 26 -101 78 -208 71 -147 88 -178 105 -192 9 -8 10 -10 3 -7 -8 5 -4 -9 9
-33 13 -22 27 -38 31 -36 4 3 6 -1 3 -8 -2 -7 7 -26 20 -43 20 -24 27 -27 37
-17 10 10 10 16 0 33 -7 11 -10 25 -6 30 4 7 -3 6 -17 -1 -20 -10 -22 -10 -11
1 14 15 16 43 2 34 -5 -3 -10 1 -10 10 0 11 -5 15 -15 12 -11 -5 -13 1 -9 26
4 24 3 28 -5 17 -8 -12 -12 -9 -21 15 -19 53 -33 75 -52 81 -10 3 -19 12 -19
20 -1 8 -2 20 -3 27 -1 6 6 11 14 9 11 -3 9 2 -5 16 -14 13 -22 16 -28 8 -4
-6 -5 3 -2 19 6 29 6 29 -9 11 -14 -17 -16 -17 -16 -4 0 9 5 20 10 23 6 3 10
11 10 18 0 6 -7 2 -16 -9 -14 -18 -15 -18 -4 4 8 17 8 27 0 37 -6 7 -10 17 -9
21 1 5 1 16 0 24 -1 13 -2 13 -12 0 -8 -12 -9 -10 -4 8 7 25 -2 65 -14 58 -4
-3 -7 3 -7 12 0 50 -5 82 -12 80 -14 -5 -58 37 -64 60 -7 26 -5 27 16 6 19
-18 22 -2 3 18 -38 40 -45 61 -30 95 8 20 9 33 3 33 -5 0 -10 -8 -10 -17 -1
-16 -2 -16 -15 1 -11 14 -15 16 -15 5z m274 -654 l6 -30 -15 25 c-8 14 -14 32
-15 40 0 23 17 -2 24 -35z"/>
<path d="M987 2415 c-17 -24 -17 -26 8 -72 14 -27 40 -61 58 -77 18 -16 26
-25 19 -21 -11 6 -12 3 -3 -13 12 -23 31 -38 32 -25 5 57 2 76 -13 84 -10 5
-18 16 -18 24 0 7 -14 28 -31 45 -18 18 -31 41 -31 55 0 14 -1 25 -2 25 0 0
-9 -12 -19 -25z"/>
<path d="M1115 2249 c-4 -6 -4 -13 -1 -16 3 -3 1 -14 -5 -25 -9 -16 -7 -24 9
-38 11 -10 23 -16 26 -12 4 3 4 0 1 -8 -3 -9 17 -43 52 -85 32 -38 52 -65 44
-61 -10 6 -12 5 -7 -2 4 -7 14 -12 23 -12 9 0 14 -3 10 -6 -3 -4 12 -22 34
-40 23 -19 38 -34 35 -34 -4 0 -1 -6 6 -14 10 -11 16 -11 27 -2 12 9 12 7 2
-13 -8 -15 -9 -21 -2 -17 6 4 14 0 17 -8 7 -19 35 -22 32 -3 -2 6 -13 26 -25
44 -13 17 -23 38 -23 45 0 10 -3 9 -10 -2 -9 -15 -8 -17 -25 36 -3 8 -9 13
-14 10 -5 -3 -17 11 -26 31 -19 39 -85 108 -86 89 0 -6 -4 -1 -10 12 -5 13
-13 21 -18 17 -5 -3 -13 0 -17 6 -4 8 -3 9 4 5 7 -4 12 -2 12 3 0 6 -4 11 -9
11 -5 0 -13 9 -16 20 -4 11 -11 17 -17 14 -6 -4 -5 -10 3 -16 11 -8 11 -9 -1
-5 -8 2 -13 11 -11 18 2 8 3 20 2 27 -5 48 -5 49 -16 31z"/>
<path d="M1424 1851 c4 -6 0 -14 -9 -17 -14 -6 -14 -8 1 -25 9 -10 21 -16 25
-13 5 3 12 -2 15 -10 3 -9 10 -16 15 -16 4 0 6 7 2 16 -5 14 -3 13 15 -2 27
-22 27 -25 5 -17 -11 3 -5 -7 14 -28 25 -25 35 -30 43 -21 6 6 7 10 4 7 -9 -7
-34 15 -34 29 0 6 4 4 10 -4 5 -8 11 -12 14 -10 2 3 -16 23 -40 46 -25 23 -42
34 -39 25 5 -12 3 -13 -5 -5 -6 6 -13 20 -14 30 -2 10 -9 20 -16 22 -8 3 -10
0 -6 -7z m11 -31 c3 -5 1 -10 -4 -10 -6 0 -11 5 -11 10 0 6 2 10 4 10 3 0 8
-4 11 -10z"/>
<path d="M1515 1701 c33 -32 62 -57 64 -55 2 2 -2 10 -9 19 -8 10 -9 15 -2 15
15 0 33 -35 24 -45 -4 -3 0 -5 8 -3 10 2 14 -4 12 -17 -2 -19 -2 -19 11 -2 20
24 28 21 23 -7 -5 -27 39 -75 48 -53 2 7 5 3 5 -8 2 -24 46 -69 60 -61 5 4 11
0 13 -7 2 -11 8 -9 23 6 13 13 15 18 5 15 -16 -6 -73 46 -62 56 3 4 -1 4 -11
0 -13 -5 -16 -2 -10 12 4 12 3 15 -5 10 -7 -4 -15 -1 -18 8 -3 9 -12 16 -20
16 -8 0 -14 6 -14 13 0 8 -9 22 -20 32 -11 10 -20 14 -20 10 0 -5 -14 7 -31
26 -18 19 -29 29 -25 22 3 -6 2 -14 -4 -18 -5 -3 -10 -1 -10 4 0 6 -4 10 -8 9
-5 -2 -21 12 -36 30 -15 17 -33 32 -39 32 -7 0 15 -27 48 -59z m160 -121 c3
-5 1 -10 -4 -10 -6 0 -11 5 -11 10 0 6 2 10 4 10 3 0 8 -4 11 -10z m55 -44 c0
-3 -4 -8 -10 -11 -5 -3 -10 -1 -10 4 0 6 5 11 10 11 6 0 10 -2 10 -4z m30 -37
c0 -14 -17 -10 -23 5 -4 10 -1 13 9 9 7 -3 14 -9 14 -14z"/>
<path d="M1795 1470 c-3 -5 1 -10 10 -10 9 0 13 -4 10 -10 -3 -5 -1 -10 5 -10
6 0 8 -4 5 -10 -4 -6 1 -7 11 -3 13 5 15 3 9 -8 -5 -8 -4 -11 0 -6 17 15 14
36 -3 30 -10 -4 -14 -3 -10 2 4 4 1 14 -7 21 -16 17 -22 17 -30 4z"/>
<path d="M1866 1415 c-3 -9 0 -15 8 -15 7 0 13 7 13 15 0 8 -4 15 -8 15 -4 0
-9 -7 -13 -15z"/>
<path d="M1940 1380 c-8 -5 -12 -12 -9 -15 4 -3 12 1 19 10 14 17 11 19 -10 5z"/>
<path d="M6500 1220 c0 -5 5 -10 11 -10 5 0 7 5 4 10 -3 6 -8 10 -11 10 -2 0
-4 -4 -4 -10z"/>
</g>
</svg>
